<svg width="22" height="24" viewBox="0 0 22 24" fill="none" xmlns="http://www.w3.org/2000/svg">
<path d="M21.5983 18.3863C21.496 18.5568 21.3302 18.6798 21.1373 18.728C20.9443 18.7763 20.7401 18.746 20.5696 18.6438L11.7058 13.325V23C11.7058 23.1989 11.6268 23.3897 11.4861 23.5304C11.3455 23.671 11.1547 23.75 10.9558 23.75C10.7569 23.75 10.5661 23.671 10.4255 23.5304C10.2848 23.3897 10.2058 23.1989 10.2058 23V13.325L1.34206 18.6438C1.22516 18.7132 1.09176 18.7499 0.955814 18.75C0.791458 18.7506 0.631459 18.6972 0.500421 18.598C0.369382 18.4988 0.274559 18.3593 0.230533 18.2009C0.186508 18.0426 0.195717 17.8742 0.256745 17.7215C0.317772 17.5689 0.42724 17.4406 0.568314 17.3563L9.49831 12L0.569564 6.64378C0.398831 6.54134 0.275784 6.37527 0.227494 6.18211C0.179203 5.98895 0.209624 5.78451 0.312064 5.61378C0.414504 5.44305 0.580572 5.32 0.773734 5.27171C0.966897 5.22342 1.17133 5.25384 1.34206 5.35628L10.2058 10.675V1.00003C10.2058 0.801118 10.2848 0.610353 10.4255 0.4697C10.5661 0.329048 10.7569 0.250031 10.9558 0.250031C11.1547 0.250031 11.3455 0.329048 11.4861 0.4697C11.6268 0.610353 11.7058 0.801118 11.7058 1.00003V10.675L20.5696 5.35628C20.7403 5.25384 20.9447 5.22342 21.1379 5.27171C21.3311 5.32 21.4971 5.44305 21.5996 5.61378C21.702 5.78451 21.7324 5.98895 21.6841 6.18211C21.6358 6.37527 21.5128 6.54134 21.3421 6.64378L12.4133 12L21.3421 17.3563C21.4266 17.407 21.5002 17.474 21.5589 17.5532C21.6175 17.6325 21.6599 17.7225 21.6837 17.8182C21.7075 17.9138 21.7122 18.0132 21.6976 18.1107C21.6829 18.2082 21.6492 18.3018 21.5983 18.3863Z" fill="white"/>
</svg>
